<svg width="97" height="96" xmlns="http://www.w3.org/2000/svg" xmlns:xlink="http://www.w3.org/1999/xlink" xml:space="preserve" overflow="hidden"><g transform="translate(-940 -624)"><g><g><g><g><path d="M964.6 685.717 962.1 693.217 967.8 698.917 975.3 696.417C977.29 697.53 979.404 698.403 981.6 699.017L985.1 706.017 993.1 706.017 996.6 699.017C998.77 698.421 1000.85 697.547 1002.8 696.417L1010.3 698.917 1016 693.217 1013.5 685.717C1014.61 683.727 1015.49 681.612 1016.1 679.417L1023.1 675.917 1023.1 667.917 1016 664.517C1015.4 662.347 1014.53 660.263 1013.4 658.317L1015.9 650.817 1010.2 645.117 1002.7 647.617C1000.71 646.504 998.596 645.631 996.4 645.017L993 638 985 638 981.5 645C979.33 645.596 977.246 646.47 975.3 647.6L967.8 645.1 962.1 650.8 964.6 658.3C963.488 660.29 962.615 662.405 962 664.6L955 668 955 676 962 679.5C962.596 681.675 963.469 683.765 964.6 685.717ZM957 669.264 962.874 666.41 963.691 666.01 963.93 665.134C964.504 663.091 965.317 661.122 966.353 659.269L966.774 658.503 966.498 657.673 964.388 651.344 968.341 647.39 974.668 649.5 975.523 649.785 976.303 649.333C978.1 648.29 980.024 647.483 982.027 646.933L982.89 646.698 983.29 645.898 986.238 640 991.75 640 994.6 645.88 995 646.696 995.876 646.935C997.919 647.51 999.887 648.324 1001.74 649.359L1002.51 649.781 1003.34 649.504 1009.66 647.394 1013.62 651.348 1011.51 657.677 1011.22 658.532 1011.67 659.311C1012.72 661.108 1013.52 663.033 1014.07 665.037L1014.31 665.92 1015.14 666.315 1021.1 669.172 1021.1 674.679 1015.21 677.627 1014.41 678.027 1014.17 678.889C1013.6 680.932 1012.78 682.901 1011.75 684.754L1011.33 685.52 1011.6 686.35 1013.71 692.679 1009.76 696.633 1003.43 694.523 1002.58 694.238 1001.8 694.69C1000 695.733 998.076 696.54 996.072 697.09L995.21 697.325 994.81 698.125 991.862 704.025 986.338 704.025 983.391 698.125 982.991 697.325 982.128 697.09C980.086 696.515 978.118 695.701 976.266 694.666L975.499 694.244 974.669 694.521 968.342 696.631 964.389 692.677 966.5 686.35 966.784 685.495 966.333 684.715C965.289 682.918 964.482 680.993 963.933 678.989L963.697 678.127 962.897 677.727 957 674.779Z" fill="#000000" fill-rule="nonzero" fill-opacity="1"/><path d="M989 684.017C995.627 684.017 1001 678.644 1001 672.017 1001 665.39 995.627 660.017 989 660.017 982.373 660.017 977 665.39 977 672.017 977.021 678.636 982.381 683.996 989 684.017ZM989 662.01C994.523 662.01 999 666.487 999 672.01 999 677.533 994.523 682.01 989 682.01 983.477 682.01 979 677.533 979 672.01 979.007 666.49 983.48 662.017 989 662.01Z" fill="#000000" fill-rule="nonzero" fill-opacity="1"/></g></g></g></g></g></svg>