<svg width="97" height="98" xmlns="http://www.w3.org/2000/svg" xmlns:xlink="http://www.w3.org/1999/xlink" xml:space="preserve" overflow="hidden"><g transform="translate(-940 -366)"><g><g><g><g><path d="M1022.33 409.731C1023.3 403.637 1023.23 397.421 1022.11 391.351L1022.01 390.85 1021.54 390.638C1015.94 388.175 1009.97 386.677 1003.87 386.208 999.717 381.721 994.837 377.968 989.434 375.108L988.98 374.877 988.525 375.109C983.074 377.995 978.156 381.792 973.985 386.335 968.003 386.746 962.129 388.141 956.6 390.463L956.132 390.668 956.024 391.167C955.899 391.744 953.947 401.046 955.562 409.829 952.208 414.75 949.681 420.186 948.081 425.923L947.951 426.417 948.275 426.811C948.646 427.264 954.628 434.447 962.419 438.648 964.193 444.369 966.897 449.759 970.423 454.601L970.729 455.009 971.24 455C977.282 454.799 983.249 453.593 988.895 451.43 994.54 453.593 1000.51 454.799 1006.55 455L1007.06 455.009 1007.37 454.601C1010.87 449.789 1013.56 444.437 1015.34 438.757 1023.23 434.572 1029.31 427.267 1029.68 426.811L1030.01 426.417 1029.88 425.923C1028.27 420.147 1025.72 414.677 1022.33 409.731ZM1020.24 392.252C1021.08 397.319 1021.22 402.48 1020.63 407.585 1018.28 404.67 1015.12 402.506 1011.56 401.358 1010.87 401.165 1010.18 401.008 1009.48 400.889 1009.55 400.015 1009.56 399.137 1009.51 398.261 1009.17 394.659 1007.81 391.23 1005.59 388.374 1010.63 388.989 1015.56 390.294 1020.24 392.252ZM987.873 429.928C987.506 430.68 987.087 431.406 986.619 432.1 984.649 434.995 981.846 437.225 978.582 438.494 977.549 435.144 977.557 431.561 978.605 428.216 978.86 427.418 979.169 426.639 979.53 425.884 980.274 425.684 981.005 425.439 981.719 425.152 983.234 426.494 985.091 427.39 987.084 427.74 987.303 428.484 987.567 429.215 987.873 429.928ZM984.593 405.476C984.579 404.548 984.637 403.62 984.765 402.701 985.248 399.384 986.685 396.278 988.899 393.762 991.241 396.374 992.733 399.636 993.179 403.115 993.278 403.912 993.324 404.714 993.317 405.517 992.969 405.82 992.639 406.14 992.317 406.468 990.145 405.771 987.811 405.772 985.64 406.469 985.303 406.126 984.957 405.792 984.593 405.476ZM988.98 425.915C984.018 425.915 979.995 421.893 979.995 416.931 979.995 411.968 984.018 407.946 988.98 407.946 993.942 407.946 997.964 411.968 997.964 416.93 997.965 421.892 993.942 425.915 988.98 425.915 988.98 425.915 988.98 425.915 988.98 425.915ZM995.165 407.86C995.222 407.399 995.269 406.937 995.291 406.472 995.915 405.969 996.571 405.509 997.255 405.093 1000.26 403.283 1003.74 402.429 1007.25 402.644 1006.65 405.942 1005.1 408.996 1002.8 411.435 1002.16 412.102 1001.48 412.72 1000.75 413.283 1000.25 413.189 999.751 413.123 999.251 413.07 998.454 410.956 997.028 409.137 995.165 407.86ZM978.716 413.05C978.202 413.099 977.689 413.161 977.179 413.255 976.46 412.699 975.785 412.091 975.157 411.435 972.856 408.996 971.312 405.942 970.714 402.643 974.215 402.428 977.699 403.282 980.704 405.093 981.365 405.493 981.999 405.936 982.604 406.418 982.629 406.912 982.684 407.403 982.751 407.892 980.915 409.163 979.508 410.962 978.716 413.05ZM973.7 412.804C974.047 413.174 974.42 413.51 974.791 413.85 974.402 413.971 974.011 414.077 973.628 414.223 969.911 415.616 966.715 418.121 964.475 421.397 963.814 420.941 963.185 420.44 962.593 419.898 960.021 417.281 958.318 413.935 957.717 410.315 960.172 407.08 963.236 404.342 966.95 403.282 967.533 403.115 968.125 402.978 968.722 402.872 969.371 406.599 971.102 410.053 973.7 412.804ZM974.338 416.093C975.103 415.809 975.886 415.577 976.682 415.398 977.117 415.709 977.569 415.992 978.029 416.263 978.015 416.485 977.995 416.705 977.995 416.93 977.993 418.779 978.461 420.597 979.355 422.215 978.918 422.836 978.518 423.482 978.157 424.149 977.339 424.328 976.51 424.449 975.675 424.514 972.379 424.746 969.085 424.031 966.182 422.453 968.189 419.551 971.034 417.332 974.338 416.093ZM990.874 427.74C992.897 427.385 994.78 426.467 996.306 425.092 996.919 425.333 997.544 425.542 998.179 425.719 998.575 426.525 998.911 427.36 999.185 428.216 1000.22 431.538 1000.24 435.097 999.226 438.427 996.026 437.15 993.281 434.947 991.341 432.1 990.873 431.406 990.454 430.68 990.086 429.928 990.392 429.215 990.656 428.484 990.874 427.74ZM999.56 424.001C999.246 423.43 998.901 422.876 998.528 422.341 999.47 420.693 999.965 418.828 999.964 416.93 999.964 416.705 999.945 416.486 999.931 416.264 1000.38 416.003 1000.82 415.729 1001.24 415.428 1001.99 415.603 1002.73 415.824 1003.45 416.093 1006.74 417.326 1009.57 419.528 1011.57 422.408 1008.62 423.987 1005.26 424.672 1001.92 424.378 1001.13 424.304 1000.34 424.179 999.56 424.001ZM1004.16 414.223C1003.82 414.093 1003.47 414.001 1003.13 413.891 1003.51 413.539 1003.9 413.188 1004.26 412.804 1006.86 410.053 1008.59 406.599 1009.24 402.872 1009.83 402.979 1010.43 403.116 1011.01 403.282 1014.69 404.331 1017.73 407.023 1020.17 410.215 1019.34 413.974 1017.81 417.523 1015.08 419.975 1014.51 420.476 1013.92 420.941 1013.29 421.366 1011.05 418.105 1007.86 415.611 1004.16 414.223ZM1002.27 388.191C1002.48 388.191 1002.7 388.203 1002.91 388.207 1005.4 391.218 1007.28 394.674 1007.51 398.386 1007.56 399.14 1007.55 399.897 1007.5 400.651 1003.55 400.384 999.617 401.335 996.23 403.376 995.892 403.578 995.579 403.81 995.256 404.029 995.228 403.638 995.215 403.247 995.164 402.854 994.662 398.931 992.968 395.257 990.309 392.329 990.866 391.818 991.454 391.344 992.072 390.909 995.115 388.988 998.671 388.04 1002.27 388.191ZM988.98 377.135C993.418 379.587 997.498 382.638 1001.1 386.202 997.491 386.235 993.962 387.298 990.931 389.266 990.215 389.771 989.532 390.324 988.889 390.92 988.361 390.444 987.808 389.998 987.231 389.582 984.12 387.5 980.47 386.371 976.727 386.333 980.363 382.711 984.487 379.615 988.98 377.135ZM974.955 388.323C978.968 388.26 982.96 388.976 986.063 391.206 986.556 391.56 987.03 391.939 987.484 392.342 984.965 395.164 983.331 398.665 982.786 402.408 982.708 402.934 982.673 403.459 982.636 403.984 982.334 403.781 982.044 403.564 981.73 403.376 978.343 401.334 974.41 400.383 970.464 400.65 970.41 399.896 970.404 399.14 970.445 398.385 970.674 394.722 972.511 391.307 974.955 388.323ZM957.879 392.097C962.5 390.248 967.35 389.03 972.296 388.475 970.116 391.308 968.782 394.701 968.449 398.261 968.401 399.136 968.411 400.014 968.48 400.889 967.779 401.008 967.085 401.165 966.401 401.359 962.807 402.518 959.632 404.707 957.27 407.654 956.732 402.466 956.937 397.227 957.879 392.097ZM961.78 435.954C957.457 433.173 953.544 429.8 950.156 425.934 951.563 421.214 953.589 416.702 956.182 412.515 957.015 415.875 958.763 418.938 961.232 421.365 961.923 421.997 962.658 422.58 963.432 423.108 963.099 423.719 962.8 424.348 962.534 424.99 961.221 428.493 960.96 432.304 961.78 435.954ZM964.382 425.754C964.607 425.207 964.86 424.678 965.134 424.164 967.98 425.736 971.179 426.559 974.431 426.556 974.889 426.556 975.349 426.54 975.812 426.508 976.268 426.477 976.716 426.405 977.166 426.344 977.003 426.768 976.831 427.187 976.695 427.624 975.523 431.365 975.518 435.374 976.681 439.118 976.088 439.274 975.487 439.399 974.881 439.493 971.272 440.055 967.565 439.008 964.144 437.277 963.148 433.369 962.918 429.299 964.382 425.754ZM971.72 452.98C968.879 448.928 966.59 444.516 964.915 439.859 967.419 440.984 970.125 441.592 972.87 441.646 973.645 441.646 974.419 441.587 975.185 441.47 975.923 441.353 976.653 441.195 977.372 440.996 977.662 441.681 977.99 442.349 978.354 442.997 980.267 446.127 983.04 448.64 986.343 450.236 981.614 451.802 976.695 452.725 971.72 452.98ZM988.895 449.23C985.255 447.613 981.964 445.304 980.093 442.009 979.792 441.478 979.518 440.931 979.273 440.372 982.927 438.96 986.065 436.469 988.269 433.23 988.528 432.853 988.749 432.458 988.98 432.067 989.211 432.458 989.433 432.853 989.692 433.23 991.866 436.423 994.949 438.889 998.542 440.309 998.291 440.89 998.009 441.458 997.697 442.009 995.826 445.304 992.535 447.613 988.895 449.23ZM1006.07 452.98C1001.09 452.725 996.176 451.802 991.447 450.237 994.75 448.641 997.523 446.127 999.436 442.997 999.808 442.333 1000.14 441.649 1000.44 440.948 1001.2 441.169 1001.99 441.343 1002.77 441.469 1003.54 441.587 1004.31 441.646 1005.09 441.645 1007.76 441.595 1010.4 441.016 1012.85 439.942 1011.17 444.568 1008.89 448.952 1006.07 452.98ZM1013.62 437.374C1010.41 439.149 1006.73 439.889 1003.08 439.493 1002.42 439.389 1001.77 439.247 1001.12 439.07 1002.27 435.34 1002.26 431.349 1001.09 427.624 1000.94 427.141 1000.76 426.676 1000.57 426.209 1000.97 426.265 1001.36 426.338 1001.75 426.371 1002.32 426.419 1002.89 426.443 1003.46 426.444 1006.66 426.445 1009.82 425.643 1012.63 424.113 1012.92 424.646 1013.18 425.194 1013.41 425.754 1014.88 429.329 1014.64 433.436 1013.62 437.374ZM1015.98 436.073C1016.83 432.387 1016.58 428.533 1015.26 424.99 1014.98 424.334 1014.68 423.694 1014.34 423.071 1015.06 422.581 1015.76 422.044 1016.41 421.463 1019 418.997 1020.83 415.852 1021.7 412.39 1024.33 416.611 1026.38 421.167 1027.8 425.935 1024.37 429.86 1020.39 433.273 1015.98 436.073Z" fill="#000000" fill-rule="nonzero" fill-opacity="1"/></g></g></g></g></g></svg>