<svg width="97" height="98" xmlns="http://www.w3.org/2000/svg" xmlns:xlink="http://www.w3.org/1999/xlink" xml:space="preserve" overflow="hidden"><g transform="translate(-940 -478)"><g><g><g><g><path d="M1018.76 493 959.236 493 953.036 515.737 953 522C953.003 524.54 954.605 526.803 957 527.65L957 561 1021 561 1021 527.65C1023.39 526.803 1025 524.54 1025 522L1025 516ZM997 515.91 995.1 495 1004.2 495 1009 516.112 1009 520.1C1009 523.357 1006.36 525.997 1003.1 526L1002.9 526C999.643 525.997 997.003 523.357 997 520.1L997 516ZM995 520.1C994.997 523.357 992.357 525.997 989.1 526L988.9 526C985.643 525.997 983.003 523.357 983 520.1L983 516.047 984.913 495 993.087 495 995 516ZM982.905 495 981 516 981 520.1C980.997 523.357 978.357 525.997 975.1 526L974.9 526C971.643 525.997 969.003 523.357 969 520.1L969 516.112 973.8 495ZM967 516 967 520.1C966.997 523.357 964.357 525.997 961.1 526L959 526C956.791 526 955 524.209 955 522L955 516.134 960.764 495 971.747 495 967.025 515.778ZM993 559 993 536 1010 536 1010 559ZM1019 559 1012 559 1012 534 991 534 991 559 959 559 959 528 961.1 528C963.967 527.998 966.608 526.443 968 523.937 969.392 526.443 972.033 527.998 974.9 528L975.1 528C977.967 527.998 980.608 526.443 982 523.937 983.392 526.443 986.033 527.998 988.9 528L989.1 528C991.967 527.998 994.608 526.443 996 523.937 997.392 526.443 1000.03 527.998 1002.9 528L1003.1 528C1005.97 527.998 1008.61 526.443 1010 523.937 1011.39 526.443 1014.03 527.998 1016.9 528L1019 528ZM1023 522C1023 524.209 1021.21 526 1019 526L1016.9 526C1013.64 525.997 1011 523.357 1011 520.1L1011 516 1006.25 495 1017.24 495 1023 516.134Z" fill="#000000" fill-rule="nonzero" fill-opacity="1"/><path d="M966 551 983 551 983 534 966 534ZM968 536 981 536 981 549 968 549Z" fill="#000000" fill-rule="nonzero" fill-opacity="1"/></g></g></g></g></g></svg>