<svg width="97" height="98" xmlns="http://www.w3.org/2000/svg" xmlns:xlink="http://www.w3.org/1999/xlink" xml:space="preserve" overflow="hidden"><g transform="translate(-592 -506)"><g><g><g><g><path d="M640.979 517C620.004 517 603 534.004 603 554.979 603 575.954 620.004 592.958 640.979 592.958 661.954 592.958 678.958 575.954 678.958 554.979 678.967 534.013 661.979 517.009 641.013 517 641.002 517 640.99 517 640.979 517ZM640.979 590.958C621.108 590.958 605 574.85 605 554.979 605 535.108 621.108 519 640.979 519 660.85 519 676.958 535.108 676.958 554.979 676.935 574.84 660.84 590.935 640.979 590.958Z" fill="#000000" fill-rule="nonzero" fill-opacity="1"/><path d="M642 542 634 542 634 544 640 544 640 574 633 574 633 576 649 576 649 574 642 574 642 542Z" fill="#000000" fill-rule="nonzero" fill-opacity="1"/><path d="M642.064 533.5C642.064 534.743 641.057 535.75 639.814 535.75 638.571 535.75 637.564 534.743 637.564 533.5 637.564 532.257 638.571 531.25 639.814 531.25 641.057 531.25 642.064 532.257 642.064 533.5Z" fill="#000000" fill-rule="nonzero" fill-opacity="1"/></g></g></g></g></g></svg>