<svg width="97" height="98" xmlns="http://www.w3.org/2000/svg" xmlns:xlink="http://www.w3.org/1999/xlink" xml:space="preserve" overflow="hidden"><g transform="translate(-944 -578)"><g><g><g><g><path d="M1025.62 616.891C1024.83 611.995 1022.13 607.611 1018.12 604.691 1013.97 601.779 1008.8 600.695 1003.82 601.691 999.9 595.666 993.206 592.023 986.016 592 984.367 592 982.725 592.195 981.122 592.582 972.603 594.798 966.229 601.883 964.922 610.588 959.287 610.785 954.038 613.502 950.622 617.988 946.629 623.603 945.905 630.911 948.72 637.2 951.587 643.383 957.617 647.492 964.42 647.9L971.72 647.9 984.026 647.93 984.026 645.93 971.721 645.9 964.482 645.9C958.447 645.516 953.103 641.866 950.548 636.385 948.043 630.752 948.682 624.216 952.232 619.176 955.294 615.192 959.971 612.778 964.992 612.588L966.653 612.529 966.899 610.885C968.067 602.977 973.853 596.535 981.591 594.529 983.04 594.178 984.525 594.001 986.016 594 992.534 594.003 998.606 597.308 1002.15 602.779L1002.89 603.912 1004.22 603.646C1008.64 602.76 1013.24 603.72 1016.95 606.305 1020.52 608.923 1022.93 612.839 1023.65 617.212L1023.88 618.651 1025.33 618.867C1032.78 619.917 1037.98 626.813 1036.93 634.271 1036 640.851 1030.47 645.805 1023.82 646L1013.22 646 1002.02 645.973 1002.02 647.973 1013.22 648 1023.82 648C1032.46 647.778 1039.27 640.6 1039.05 631.968 1038.86 624.339 1033.18 617.966 1025.62 616.891Z" fill="#000000" fill-rule="nonzero" fill-opacity="1"/><path d="M994 662 994 622.438C994 622.432 994.005 622.428 994.01 622.428 994.013 622.428 994.015 622.429 994.017 622.431L1007.29 635.707 1008.71 634.293 993 618.586 977.293 634.293 978.707 635.707 991.983 622.431C991.987 622.427 991.993 622.427 991.997 622.431 991.999 622.433 992 622.435 992 622.438L992 662Z" fill="#000000" fill-rule="nonzero" fill-opacity="1"/></g></g></g></g></g></svg>