<svg width="98" height="97" xmlns="http://www.w3.org/2000/svg" xmlns:xlink="http://www.w3.org/1999/xlink" xml:space="preserve" overflow="hidden"><g transform="translate(-874 -81)"><g><g><g><g><path d="M921.894 122.323C918.094 119.014 912.894 118.8 910.274 121.843 907.654 124.886 908.607 130.036 912.404 133.343 916.201 136.65 921.404 136.866 924.024 133.823 926.644 130.78 925.69 125.631 921.894 122.323Z" fill="#000000" fill-rule="nonzero" fill-opacity="1"/><path d="M928.66 107.3C927.211 106.124 925.083 106.344 923.905 107.792 922.938 109.394 923.435 111.476 925.022 112.468 926.471 113.644 928.599 113.424 929.777 111.976 930.744 110.374 930.247 108.292 928.66 107.3Z" fill="#000000" fill-rule="nonzero" fill-opacity="1"/><path d="M912.529 143.925C911.153 142.664 909.015 142.756 907.753 144.132 906.694 145.675 907.068 147.781 908.592 148.866 909.968 150.127 912.106 150.035 913.368 148.659 914.428 147.117 914.054 145.009 912.529 143.925Z" fill="#000000" fill-rule="nonzero" fill-opacity="1"/><path d="M959.081 141.558C951.791 135.069 951.663 131.152 946.476 129.55 942.146 128.213 938.125 130.377 934.06 133.465 934.814 131.814 935.669 130.211 936.62 128.665 942.561 118.971 954.805 109.841 954.805 109.841L923.365 87C913.812 93.2446 906.372 102.233 902.022 112.784 901.956 112.944 901.896 113.093 901.832 113.249 901.792 110.432 901.174 107.961 899.315 106.149 896.142 103.049 893.415 104.69 886.062 102.209 883.124 101.218 879.971 99.731 878.62 96.865 877.02 99.765 876.282 104.63 877.929 107.323 879.539 110.009 884.129 111.055 884.129 111.055 884.129 111.055 881.381 112.555 882.28 115.421 882.811 117.115 885.108 119.154 889.38 119.134 887.937 120.343 887.443 121.791 888.68 122.818 890.719 124.506 895.302 123.579 895.302 123.579 895.811 124.689 896.601 125.647 897.594 126.359 896.393 131.491 894.328 136.381 891.487 140.821 889.95 143.328 887.882 145.468 885.43 147.09L914.087 172.667C914.087 172.667 922.542 169.59 926.893 157.2 928.319 153.057 929.526 148.843 930.511 144.574 930.878 144.457 931.238 144.318 931.589 144.159 931.589 144.159 934.36 149.79 936.674 150.87 938.474 151.71 939.648 150.219 939.92 147.945 942.666 152.911 945.832 154.465 948.476 154.178 952.008 153.794 951.461 148.865 951.461 148.865 951.461 148.865 955.505 153.21 959.254 153.365 963.033 153.559 967.139 149.946 969.004 146.511 965.245 146.739 961.993 144.151 959.081 141.558ZM921.232 155.209C920.483 157.392 919.448 159.466 918.154 161.377L912.048 162.805 897.847 150.13 897.121 143.079C900.126 138.198 902.302 132.854 903.56 127.262 904.558 123.101 905.896 119.029 907.56 115.086 910.172 108.861 913.972 103.206 918.749 98.436L926.803 96.917 940.333 106.747 940.833 114.13C937.297 117.561 934.165 121.385 931.501 125.53 927.338 132.323 926.069 137.489 924.601 143.471 923.684 147.44 922.559 151.358 921.232 155.209Z" fill="#000000" fill-rule="nonzero" fill-opacity="1"/></g></g></g></g></g></svg>