<svg width="98" height="97" xmlns="http://www.w3.org/2000/svg" xmlns:xlink="http://www.w3.org/1999/xlink" xml:space="preserve" overflow="hidden"><g transform="translate(-946 -260)"><g><g><g><g><path d="M1029 304 1029 292C1029 289.791 1027.21 288 1025 288L966.5 288C964.567 288 963 286.433 963 284.5 963 282.567 964.567 281 966.5 281L1020 281C1021.66 281 1023 282.343 1023 284L1023 286 1025 286 1025 284C1025 281.24 1022.76 279.003 1020 279L966.5 279C963.653 279.002 961.272 281.166 961 284L961 330C961.006 334.968 965.032 338.994 970 339L1024 339C1026.76 338.997 1029 336.76 1029 334L1029 324C1031.21 324 1033 322.209 1033 320L1033 308C1033 305.791 1031.21 304 1029 304ZM1027 334C1027 335.657 1025.66 337 1024 337L970 337C966.136 336.996 963.004 333.864 963 330L963 288.739C963.984 289.555 965.222 290.001 966.5 290L1025 290C1026.1 290 1027 290.895 1027 292L1027 304 1019 304C1013.48 304 1009 308.477 1009 314 1009 319.523 1013.48 324 1019 324L1027 324ZM1031 320C1031 321.105 1030.1 322 1029 322L1019 322C1014.58 322 1011 318.418 1011 314 1011 309.582 1014.58 306 1019 306L1029 306C1030.1 306 1031 306.895 1031 308Z" fill="#000000" fill-rule="nonzero" fill-opacity="1"/><path d="M1021 310C1018.79 310 1017 311.791 1017 314 1017 316.209 1018.79 318 1021 318 1023.21 318 1025 316.209 1025 314 1025 311.791 1023.21 310 1021 310ZM1021 316C1019.9 316 1019 315.105 1019 314 1019 312.895 1019.9 312 1021 312 1022.1 312 1023 312.895 1023 314 1023 315.105 1022.1 316 1021 316Z" fill="#000000" fill-rule="nonzero" fill-opacity="1"/></g></g></g></g></g></svg>