<svg width="97" height="98" xmlns="http://www.w3.org/2000/svg" xmlns:xlink="http://www.w3.org/1999/xlink" xml:space="preserve" overflow="hidden"><g transform="translate(-409 -458)"><g><g><g><g><path d="M421.622 514.333 430.178 517.9C431.378 518.4 432.356 517.258 432.36 515.347L432.371 509.157C432.371 507.247 431.403 505.292 430.201 504.792L421.645 501.23C420.445 500.73 419.466 501.872 419.463 503.783L419.452 509.973C419.449 511.878 420.42 513.833 421.622 514.333Z" fill="#000000" fill-rule="nonzero" fill-opacity="1"/><path d="M446.794 524.814 455.35 528.376C455.525 528.452 455.713 528.492 455.903 528.494 456.838 528.494 457.529 527.43 457.532 525.823L457.543 519.633C457.543 517.723 456.575 515.768 455.373 515.268L446.818 511.706C446.643 511.63 446.455 511.59 446.265 511.588 445.33 511.588 444.638 512.652 444.635 514.259L444.624 520.449C444.621 522.359 445.592 524.314 446.794 524.814ZM448.631 516.794 453.357 518.761C453.475 519.034 453.539 519.328 453.543 519.626L453.537 523.289 448.811 521.321C448.692 521.048 448.628 520.754 448.624 520.456Z" fill="#000000" fill-rule="nonzero" fill-opacity="1"/><path d="M413.26 490.171C413.146 490.215 413.036 490.27 412.932 490.335 412.375 490.706 412.04 491.331 412.04 492L412 514.481C411.998 515.29 412.484 516.02 413.231 516.331L415.262 517.176 416.556 519.776C416.771 520.208 417.134 520.547 417.579 520.732L430.365 526.056C432.87 527.101 435.372 526.116 436.741 523.556L438.127 520.962C438.225 521.136 438.308 521.318 438.376 521.506L440.107 526.221C441.18 529.142 442.981 531.311 445.048 532.172L457.835 537.5C458.636 537.833 459.56 537.612 460.124 536.953L461.084 535.83 462.768 535.992 463 536 463.236 535.977C463.413 535.959 463.587 535.917 463.753 535.853L476.753 530.567C477.36 530.321 477.809 529.793 477.953 529.154L480.975 515.736 491.929 511.2C492.038 511.152 492.163 511.165 492.26 511.233 492.361 511.296 492.42 511.407 492.417 511.526L492.417 512.238C492.417 512.391 492.318 512.527 492.172 512.573 490.38 513.156 489.168 514.828 489.172 516.713L489.172 517.789C489.176 520.193 491.127 522.138 493.531 522.134 494.068 522.134 494.6 522.033 495.1 521.839L496.07 521.461C500.866 519.613 504.021 514.994 504 509.855L504 507.578C503.999 502.614 499.975 498.591 495.011 498.591 493.873 498.591 492.746 498.807 491.689 499.228L463.525 510.438 431.325 497.031 431.925 494.754 442.925 490.196C443.105 490.121 443.312 490.207 443.386 490.387 443.404 490.43 443.413 490.476 443.413 490.522L443.413 491.234C443.413 491.387 443.314 491.523 443.168 491.569 441.376 492.152 440.164 493.824 440.168 495.709L440.168 496.785C440.167 499.187 442.114 501.136 444.516 501.137 445.058 501.137 445.595 501.036 446.1 500.839L447.07 500.461C451.866 498.613 455.021 493.994 455 488.855L455 486.578C455 481.614 450.975 477.59 446.011 477.591 444.87 477.591 443.738 477.809 442.678 478.232ZM444.168 481.945C446.727 480.926 449.627 482.174 450.646 484.733 450.88 485.32 451 485.946 451 486.578L451 488.855C451.014 492.344 448.873 495.479 445.618 496.735L444.647 497.113C444.467 497.184 444.263 497.096 444.192 496.916 444.175 496.874 444.167 496.83 444.167 496.785L444.167 495.709C444.167 495.556 444.265 495.421 444.41 495.374 446.205 494.793 447.42 493.12 447.417 491.234L447.417 490.522C447.418 488.118 445.47 486.169 443.066 486.169 442.494 486.169 441.928 486.281 441.4 486.5L429.484 491.438C428.908 491.677 428.477 492.171 428.317 492.773L427.6 495.48 419.286 492.018ZM460.964 531.8 460.432 531.749C459.783 531.686 459.143 531.944 458.719 532.44L458.029 533.249 446.585 528.482C445.83 528.167 444.663 527.026 443.862 524.845L442.131 520.13C441.353 518.01 439.831 516.621 438.166 516.505 438.089 516.5 438.014 516.497 437.938 516.497 436.664 516.52 435.511 517.259 434.958 518.407L433.213 521.674C432.671 522.688 432.19 522.488 431.903 522.374L419.803 517.337 418.511 514.727C418.297 514.295 417.934 513.956 417.489 513.771L416 513.152 416.035 495 461 513.718ZM500 509.855C500.014 513.344 497.873 516.479 494.618 517.735L493.647 518.113C493.467 518.184 493.263 518.096 493.192 517.916 493.175 517.874 493.167 517.83 493.167 517.785L493.167 516.709C493.167 516.556 493.265 516.421 493.41 516.374 495.205 515.793 496.42 514.12 496.417 512.234L496.417 511.522C496.418 509.118 494.47 507.169 492.066 507.169 491.494 507.169 490.928 507.281 490.4 507.5L478.484 512.438C477.884 512.687 477.443 513.212 477.3 513.846L474.278 527.255 465 531.028 465 514.156 493.168 502.945C495.727 501.926 498.627 503.174 499.646 505.733 499.88 506.32 500 506.946 500 507.578Z" fill="#000000" fill-rule="nonzero" fill-opacity="1"/></g></g></g></g></g></svg>