<svg width="97" height="97" xmlns="http://www.w3.org/2000/svg" xmlns:xlink="http://www.w3.org/1999/xlink" xml:space="preserve" overflow="hidden"><g transform="translate(-269 -172)"><g><g><g><g><path d="M301.707 215.77 300.293 214.355 287.615 227.034C287.611 227.038 287.605 227.038 287.601 227.034 287.599 227.032 287.598 227.03 287.598 227.028 284.257 210.236 295.16 193.915 311.952 190.574 325.961 187.786 340.062 194.932 346.098 207.878L347.91 207.031C340.23 190.507 320.609 183.337 304.085 191.017 290.824 197.18 283.203 211.337 285.358 225.8 285.36 225.805 285.357 225.81 285.353 225.812 285.349 225.813 285.344 225.811 285.342 225.808L273.891 214.355 272.477 215.77 287.092 230.385Z" fill="#000000" fill-rule="nonzero" fill-opacity="1"/><path d="M334.293 228.264 335.707 229.678 348.667 216.718C348.671 216.714 348.677 216.714 348.681 216.718 348.683 216.72 348.684 216.722 348.684 216.724 351.118 233.598 339.412 249.25 322.539 251.684 321.035 251.901 319.519 252.007 318 252 306.523 252.011 295.982 245.673 290.609 235.531L288.843 236.469C297.379 252.572 317.352 258.706 333.455 250.171 344.254 244.446 351.005 233.222 351 221 351 220.163 350.961 219.325 350.9 218.49 350.9 218.484 350.905 218.48 350.91 218.48 350.912 218.48 350.914 218.481 350.916 218.482L362.111 229.682 363.525 228.268 348.908 213.648Z" fill="#000000" fill-rule="nonzero" fill-opacity="1"/></g></g></g></g></g></svg>