<svg width="97" height="96" xmlns="http://www.w3.org/2000/svg" xmlns:xlink="http://www.w3.org/1999/xlink" xml:space="preserve" overflow="hidden"><g transform="translate(-937 -156)"><g><g><g><g><path d="M992.789 191.931 1021.88 186.146 1023.02 191.931 1025.06 191.931 1023.46 183.794 982.63 191.911C982.576 191.922 982.576 191.931 982.63 191.931Z" fill="#000000" fill-rule="nonzero" fill-opacity="1"/><path d="M1012.43 176.877 1014.68 182.477 1016.68 182.077 1013.55 174.255 970.379 191.912C970.353 191.922 970.354 191.931 970.379 191.931L975.614 191.931Z" fill="#000000" fill-rule="nonzero" fill-opacity="1"/><path d="M960.821 194.331 960.821 226.331 1031.23 226.331 1031.23 194.331ZM1029.23 224.331 962.821 224.331 962.821 196.331 1029.23 196.331Z" fill="#000000" fill-rule="nonzero" fill-opacity="1"/><path d="M996.027 217.531C999.209 217.531 1001.79 214.307 1001.79 210.331 1001.79 206.355 999.209 203.131 996.027 203.131 992.845 203.131 990.266 206.355 990.266 210.331 990.266 214.307 992.846 217.531 996.027 217.531ZM996.027 205.131C998.066 205.131 999.788 207.513 999.788 210.331 999.788 213.149 998.066 215.531 996.027 215.531 993.988 215.531 992.266 213.149 992.266 210.331 992.266 207.513 993.989 205.13 996.027 205.13Z" fill="#000000" fill-rule="nonzero" fill-opacity="1"/><path d="M975.357 213.668C977.199 214.035 978.989 212.839 979.356 210.997 979.722 209.156 978.527 207.366 976.685 206.999 974.843 206.632 973.053 207.828 972.687 209.669 972.599 210.109 972.599 210.561 972.687 211 972.958 212.346 974.011 213.398 975.357 213.668ZM976.024 208.932C976.797 208.932 977.424 209.559 977.424 210.332 977.424 211.105 976.797 211.732 976.024 211.732 975.251 211.732 974.624 211.105 974.624 210.332 974.624 209.559 975.251 208.932 976.024 208.932Z" fill="#000000" fill-rule="nonzero" fill-opacity="1"/><path d="M1015.36 213.668C1017.2 214.035 1019 212.84 1019.36 210.999 1019.73 209.157 1018.53 207.367 1016.69 206.999 1014.85 206.632 1013.06 207.827 1012.69 209.669 1012.61 210.108 1012.61 210.561 1012.69 211 1012.96 212.346 1014.02 213.398 1015.36 213.668ZM1016.03 208.932C1016.8 208.932 1017.43 209.559 1017.43 210.332 1017.43 211.105 1016.8 211.732 1016.03 211.732 1015.26 211.732 1014.63 211.105 1014.63 210.332 1014.63 209.559 1015.26 208.932 1016.03 208.932Z" fill="#000000" fill-rule="nonzero" fill-opacity="1"/><path d="M1024.03 221.533 1026.43 219.133 1026.43 201.533 1024.03 199.133 968.823 199.133 965.623 202.333 965.623 218.333 968.823 221.533ZM967.622 203.16 969.651 201.131 1023.2 201.131 1024.43 202.36 1024.43 218.3 1023.2 219.533 969.651 219.533 967.622 217.5Z" fill="#000000" fill-rule="nonzero" fill-opacity="1"/><path d="M939.633 202.734 955.633 202.734 955.633 204.734 939.633 204.734Z" fill="#000000" fill-rule="nonzero" fill-opacity="1"/><path d="M944.633 210.734 955.633 210.734 955.633 212.734 944.633 212.734Z" fill="#000000" fill-rule="nonzero" fill-opacity="1"/><path d="M941.633 218.734 955.633 218.734 955.633 220.734 941.633 220.734Z" fill="#000000" fill-rule="nonzero" fill-opacity="1"/></g></g></g></g></g></svg>