<svg width="96" height="96" xmlns="http://www.w3.org/2000/svg" xmlns:xlink="http://www.w3.org/1999/xlink" xml:space="preserve" overflow="hidden"><g transform="translate(-608 -328)"><g><path d="M686.756 366.177C686.756 365.425 686.147 364.815 685.395 364.814 684.643 364.814 684.032 365.423 684.032 366.175 684.031 366.927 684.641 367.538 685.393 367.538 685.395 367.538 685.398 367.538 685.4 367.538 686.15 367.535 686.756 366.927 686.756 366.177Z" fill="#000000" fill-rule="nonzero" fill-opacity="1"/><path d="M635.99 359.611C634.282 360.483 632.639 361.478 631.075 362.588 622.316 368.835 615.962 378.812 615.962 390.229 615.962 398.291 620.944 404.751 628.669 404.751 633.594 404.895 637.703 401.019 637.846 396.094 637.847 396.052 637.848 396.009 637.849 395.967 637.817 392.464 634.981 389.635 631.478 389.611 628.765 389.497 626.449 391.553 626.24 394.26 626.196 395.046 626.797 395.72 627.584 395.764 628.294 395.804 628.926 395.314 629.063 394.615 629.204 393.435 630.244 392.572 631.43 392.652 633.091 392.652 634.023 393.941 634.023 395.675 634.023 398.05 631.865 400.213 628.616 400.213 625.174 400.213 622.697 397.586 622.697 393.859 622.697 390.229 624.71 382.968 635.022 382.968L637.464 382.968 636.627 386.877C636.28 388.497 637.311 390.092 638.931 390.439 639.138 390.484 639.349 390.506 639.56 390.506L650.34 390.506C651.801 390.532 653.078 389.526 653.394 388.1 653.722 386.476 652.671 384.893 651.047 384.565 650.851 384.526 650.651 384.506 650.451 384.506L643.271 384.506 644.977 376.546C645.134 376.07 645.622 375.786 646.113 375.886 646.654 376 647 376.53 646.886 377.07 646.886 377.07 646.886 377.071 646.886 377.071L645.644 382.971 660.155 382.971 659.317 386.88C658.97 388.5 660.001 390.095 661.621 390.442 661.828 390.487 662.039 390.509 662.251 390.509L673.031 390.509C674.492 390.534 675.769 389.527 676.085 388.1 676.413 386.476 675.362 384.893 673.738 384.565 673.542 384.526 673.342 384.506 673.142 384.506L665.962 384.506 667.662 376.546C667.819 376.07 668.307 375.786 668.798 375.886 669.339 376 669.685 376.53 669.571 377.07 669.571 377.07 669.571 377.071 669.571 377.071L668.33 382.971 684.1 382.971C686.98 382.971 689.76 381.914 691.913 380L692.878 379.142C693.291 378.775 693.327 378.143 692.96 377.73 692.771 377.517 692.499 377.395 692.214 377.395L683.348 377.395C682.796 377.395 682.348 376.947 682.348 376.395 682.348 375.843 682.796 375.395 683.348 375.395L694 375.395C695.105 375.395 696 374.5 696 373.395 696 373.209 695.974 373.024 695.923 372.845L694.19 366.78C693.5 364.364 691.865 362.328 689.656 361.131L673.7 352.488C672.918 352.066 671.942 352.358 671.52 353.14 671.394 353.374 671.328 353.635 671.327 353.9L671.327 361.51C666.477 357.785 659.265 355.646 651.499 355.646 647.543 355.685 643.628 356.442 639.942 357.88 639.672 357.981 639.403 358.086 639.135 358.193L638.782 358.339C637.84 358.728 636.905 359.145 635.99 359.611ZM665.438 363.458C665.47 363.556 665.467 363.662 665.43 363.758L663.753 368.258C663.744 368.281 663.734 368.304 663.721 368.325L661.601 372.025C661.477 372.243 661.2 372.319 660.982 372.194 660.823 372.104 660.734 371.927 660.756 371.745L661.199 368.023C661.204 367.982 661.204 367.94 661.199 367.899L660.317 362.284C660.31 362.243 660.298 362.203 660.281 362.165L659.015 359.4C660.967 359.798 662.874 360.39 664.709 361.165ZM635.483 368.151 633.6 364.658C633.579 364.623 633.552 364.591 633.522 364.564 634.789 363.695 636.111 362.909 637.479 362.21L639.544 371.157C639.6 371.401 639.447 371.645 639.203 371.701 639.048 371.737 638.887 371.689 638.776 371.575L635.553 368.252C635.525 368.222 635.501 368.188 635.483 368.151ZM650.331 371.685C650.296 371.933 650.067 372.107 649.819 372.072 649.661 372.05 649.527 371.947 649.464 371.801L647.641 367.546C647.624 367.508 647.613 367.467 647.608 367.426L647.1 363.492C647.092 363.431 647.072 363.373 647.041 363.32L644.79 359.485C646.746 359.005 648.748 358.731 650.761 358.669L651.734 361.196C651.762 361.268 651.771 361.345 651.76 361.421ZM680.857 366.177C680.857 363.922 682.685 362.093 684.941 362.093 687.197 362.093 689.025 363.922 689.025 366.177 689.025 368.432 687.197 370.261 684.941 370.261 682.686 370.262 680.858 368.434 680.857 366.179 680.857 366.178 680.857 366.178 680.857 366.177Z" fill="#000000" fill-rule="nonzero" fill-opacity="1"/></g></g></svg>