<svg width="97" height="97" xmlns="http://www.w3.org/2000/svg" xmlns:xlink="http://www.w3.org/1999/xlink" xml:space="preserve" overflow="hidden"><g transform="translate(-636 -532)"><g><g><g><g><path d="M725.583 578.419C722.873 572.945 716.539 568.326 707.716 565.38 705.567 558.675 699.264 554.182 692.225 554.337 688.979 554.35 686.603 555.255 685.163 557.029 683.816 558.688 683.363 561.019 683.8 563.967 682.287 564.256 680.824 564.604 679.437 565.007 676.956 563.036 673.888 561.949 670.72 561.916 668.468 561.837 666.258 562.544 664.471 563.916 661.525 566.403 661.039 570.76 663.364 573.835L662.978 574.124C662.748 574.295 662.536 574.453 662.328 574.617 661.809 575.029 661.167 575.254 660.504 575.256 660.085 575.256 659.671 575.163 659.292 574.984L654.052 572.512C650.464 570.81 646.175 572.339 644.473 575.928 644.248 576.402 644.076 576.9 643.959 577.412 643.688 578.663 643.554 579.939 643.559 581.219L643.559 581.7C643.554 582.98 643.688 584.256 643.959 585.507 644.682 588.794 647.607 591.127 650.973 591.1 652.038 591.101 653.09 590.864 654.052 590.407L659.3 587.928C660.267 587.47 661.409 587.589 662.26 588.237 662.416 588.356 662.574 588.471 662.74 588.593 662.94 588.742 663.166 588.904 663.42 589.101 660.643 594.501 662.229 597.676 664.107 599.401 665.732 600.761 667.806 601.467 669.923 601.38 673.164 601.308 676.287 600.158 678.8 598.11 680.493 598.693 682.222 599.167 683.975 599.53 683.781 603.818 685.262 606.67 688.102 607.413 688.821 607.597 689.56 607.688 690.302 607.685 694.88 607.685 699.951 604.485 702.779 599.859 713.981 597.786 722.287 592.637 725.6 585.7 726.719 583.401 726.713 580.713 725.583 578.419ZM713.434 575.675C714.765 575.675 715.844 576.754 715.844 578.085 715.844 579.416 714.765 580.495 713.434 580.495 712.103 580.495 711.024 579.416 711.024 578.085 711.023 576.755 712.102 575.676 713.432 575.675 713.433 575.675 713.433 575.675 713.434 575.675ZM709.113 569.081C703.798 576.927 704.082 587.291 709.819 594.834 708.551 595.308 707.219 595.734 705.819 596.105 700.251 587.921 699.812 577.286 704.688 568.672 705.027 568.07 705.76 567.813 706.401 568.072ZM660.527 584.652C659.852 584.654 659.183 584.772 658.548 585 658.355 583.668 658.257 582.323 658.255 580.977 658.258 579.941 658.32 578.906 658.439 577.877 659.098 578.13 659.798 578.261 660.504 578.262 661.167 578.261 661.825 578.148 662.45 577.929 662.145 580.299 662.198 582.701 662.609 585.055 661.945 584.795 661.24 584.658 660.527 584.652ZM679.264 595.261C678.621 595.079 678.142 594.539 678.038 593.879 677.405 589.77 677.118 585.615 677.181 581.458 677.214 577.361 677.673 573.279 678.55 569.277 678.692 568.566 679.253 568.014 679.966 567.883L680.904 567.71C682.139 567.437 682.943 567.185 684.362 566.91 684.685 566.848 684.893 566.81 685.222 566.721L685.169 566.978C684.015 572.514 683.181 576.514 683.181 581.454 683.119 586.534 683.588 591.607 684.581 596.589 682.959 596.254 682.193 596.089 680.791 595.689Z" fill="#000000" fill-rule="nonzero" fill-opacity="1"/></g></g></g></g></g></svg>