<svg width="98" height="98" xmlns="http://www.w3.org/2000/svg" xmlns:xlink="http://www.w3.org/1999/xlink" xml:space="preserve" overflow="hidden"><g transform="translate(-782 -426)"><g><g><g><g><path d="M808 496C808 497.845 808.85 499.587 810.306 500.721 809.541 502.508 808.221 504.001 806.541 504.979 806.026 505.276 805.849 505.935 806.146 506.45 806.329 506.768 806.663 506.971 807.03 506.988 807.184 506.996 807.339 507 807.495 507 811.015 506.998 814.213 504.951 815.688 501.755 818.243 501.006 819.999 498.663 820 496L820 490.883 808 492.03Z" fill="#000000" fill-rule="nonzero" fill-opacity="1"/><path d="M847 496C847.002 498.315 848.336 500.421 850.427 501.414 849.641 502.896 848.458 504.13 847.011 504.979 846.496 505.276 846.319 505.935 846.616 506.45 846.799 506.768 847.133 506.971 847.5 506.988 847.654 506.996 847.809 507 847.965 507 851.841 506.998 855.283 504.524 856.521 500.851 858.078 499.725 859 497.921 859 496L859 487.154 847 488.3Z" fill="#000000" fill-rule="nonzero" fill-opacity="1"/><path d="M866.41 471.382C863.297 473.56 859.581 474.708 855.782 474.664 851.838 474.785 847.905 475.129 844 475.694L844 472.668C847.904 472.114 851.836 471.78 855.778 471.668 863.716 471.668 870.15 466.132 870.15 458.194 870.15 450.256 863.479 443.822 853.95 443.822 843.467 443.822 843.628 446.729 832.03 446.729 825.006 446.729 822.462 442.923 810.417 442.923 809.788 442.924 809.159 442.958 808.533 443.023 799.777 443.323 789 452.182 789 462.384L789 473 793 470.242 793 478.4 785 479.165 785 491.22 793 490.455 793 496C793.002 498.315 794.336 500.421 796.427 501.414 795.641 502.896 794.458 504.13 793.011 504.979 792.496 505.276 792.319 505.935 792.616 506.45 792.799 506.768 793.133 506.971 793.5 506.988 793.654 506.996 793.809 507 793.965 507 797.841 506.998 801.283 504.524 802.521 500.851 804.078 499.725 805 497.921 805 496L805 489.308 832 486.727 832 496C832.002 498.315 833.336 500.421 835.427 501.414 834.641 502.896 833.458 504.13 832.011 504.979 831.496 505.276 831.319 505.935 831.616 506.45 831.799 506.768 832.133 506.971 832.5 506.988 832.654 506.996 832.809 507 832.965 507 836.841 506.998 840.283 504.524 841.521 500.851 843.078 499.725 844 497.921 844 496L844 485.579 877 482.424 877 470.369ZM854.91 449.448C860.527 449.448 865.156 452.876 865.869 457.313L862.069 455.1C860.704 454.305 858.954 454.767 858.159 456.132 857.364 457.497 857.826 459.247 859.191 460.042L864.43 463.1C860.049 468.357 852.237 469.067 846.98 464.686 846.371 464.179 845.812 463.614 845.311 463L850.393 460.041C851.767 459.263 852.251 457.519 851.473 456.145 850.695 454.771 848.951 454.287 847.577 455.065 847.556 455.076 847.536 455.088 847.516 455.1L843.974 457.161C844.768 452.8 849.352 449.448 854.906 449.448ZM862.095 457.705C862.095 458.409 861.524 458.98 860.82 458.98 860.116 458.98 859.545 458.409 859.545 457.705 859.545 457.001 860.116 456.43 860.82 456.43 860.82 456.43 860.821 456.43 860.821 456.43 861.523 456.433 862.091 457.003 862.091 457.705ZM847.595 457.705C847.595 457.001 848.165 456.431 848.869 456.431 849.573 456.431 850.143 457.001 850.143 457.705 850.143 458.409 849.573 458.979 848.869 458.979 848.165 458.981 847.594 458.412 847.592 457.708 847.592 457.707 847.592 457.706 847.592 457.705ZM817.156 481.851C813.072 481.715 809.006 481.24 805 480.43L805 477.368C809.003 478.206 813.069 478.702 817.156 478.85 821.941 478.85 827.831 476.616 832.004 474.861L832.004 478.111C827.968 479.762 822.114 481.851 817.156 481.851Z" fill="#000000" fill-rule="nonzero" fill-opacity="1"/><path d="M854.905 462.338C856.098 462.453 857.165 461.597 857.312 460.408 857.015 459.079 855.696 458.243 854.367 458.54 853.435 458.748 852.708 459.476 852.499 460.408 852.645 461.597 853.712 462.453 854.905 462.338Z" fill="#000000" fill-rule="nonzero" fill-opacity="1"/><path d="M850.445 462.843C849.909 462.708 849.366 463.033 849.231 463.569 849.109 464.056 849.367 464.559 849.834 464.743 851.47 465.271 853.188 465.495 854.905 465.403 856.622 465.495 858.341 465.271 859.977 464.743 860.491 464.541 860.744 463.961 860.543 463.447 860.359 462.977 859.854 462.719 859.365 462.843 857.926 463.307 856.414 463.499 854.905 463.408 853.396 463.498 851.884 463.307 850.445 462.843Z" fill="#000000" fill-rule="nonzero" fill-opacity="1"/></g></g></g></g></g></svg>